<svg version="1.2" xmlns="http://www.w3.org/2000/svg" viewBox="0 0 400 350" width="400" height="350">
	<title>New Project</title>
	<style>
		.s0 { opacity: 1;fill: #fff } 
	</style>
	<path id="Path 0" fill-rule="evenodd" class="s0" d="m0 0h400v350h-400zm183.5 44c-6.1 1.1-27.6 4.8-48 8.1-20.4 3.4-38 6.5-39.3 7-1.2 0.5-13.5 15.9-27.9 35.1-14.1 18.9-26.2 35.5-26.7 37-0.8 1.9-0.8 3.3 0 5 0.6 1.3 11.4 13.8 24 27.8 12.7 14 39.4 43.7 59.4 66 20 22.3 44.1 49.2 53.7 59.8 17 18.9 17.4 19.2 21.3 19.2 3.5 0 4.5-0.6 8.2-4.7 2.4-2.6 8.8-9.7 14.3-15.8 5.5-6 24.2-26.7 41.5-45.9 17.3-19.2 37.8-42 45.5-50.6 7.7-8.6 20.3-22.6 27.9-31.1 7.7-8.5 15.7-17.3 17.8-19.6 3.1-3.5 3.8-4.9 3.5-7.9-0.2-3.1-4.6-9.6-26.2-38.5-16.4-21.9-26.9-35.2-28.5-35.8-1.4-0.5-24.6-4.7-51.5-9.1-26.9-4.5-49.9-8.3-51-8.5-1.1-0.1-3.1-0.1-4.5 0.2-1.4 0.2-7.4 1.3-13.5 2.3zm16.5 18c0.3 0 10.9 10.3 46.5 46h-93l23-23c12.6-12.6 23.2-23 23.5-23zm-28 1.1c3.4-0.1 3 0.4-16.5 19.9-11 11-20.3 20-20.8 20-0.4 0-5-6.5-10.2-14.5-5.2-8-9.6-14.9-9.6-15.3-0.1-0.5 6.1-1.9 13.7-3.1 7.7-1.3 19.8-3.4 26.9-4.6 7.1-1.3 14.6-2.4 16.5-2.4zm55-0.1c0.8 0 14.3 2.1 30 4.6 15.7 2.5 28.7 4.8 29 5 0.3 0.2-4 7.1-9.5 15.4-5.5 8.2-10.2 15-10.5 15-0.3 0-9.5-9-20.5-20-11-11-19.3-20-18.5-20zm-127.6 17.9l9.7 14.8c5.4 8.1 9.6 15 9.2 15.3-0.3 0.3-11.2 2.6-24.2 5.2-13 2.5-23.7 4.4-23.9 4.2-0.1-0.2 6.4-9.2 14.5-19.9zm201.9 0l14.8 19.7c8.1 10.9 14.7 19.9 14.6 20-0.1 0.1-10.8-1.9-23.8-4.5-13-2.6-24.1-5-24.5-5.4-0.5-0.4 3.6-7.3 9-15.3zm-156.2 44.1h55c30.2 0 54.9 0.2 54.9 0.5 0 0.3-12.1 33.9-27 74.7-14.9 40.9-27 74.5-27 74.8 0 0.3-0.4 0-0.9-0.5-0.5-0.6-12.6-33.2-26.9-72.5-14.3-39.3-26.5-72.8-27-74.3zm-17.9 1.2c0.4-0.1 0.8 0.1 0.8 0.3 0 0.3 9.8 27.6 21.9 60.8 12 33.1 23 63.5 24.5 67.5 1.4 4 2.4 7.2 2.1 7.2-0.3 0-7.9-8.2-16.8-18.2-9-10.1-24.7-27.5-34.8-38.8-10.1-11.3-27.4-30.6-38.4-42.8-11-12.3-20.1-22.6-20.3-23-0.1-0.4 13.4-3.4 30-6.8 16.7-3.3 30.6-6.1 31-6.2zm145.4 0.1l30.5 6.1c16.7 3.4 30.5 6.4 30.7 6.9 0.1 0.4-24.6 28.2-54.8 61.7-30.3 33.6-55.2 61-55.5 61-0.3 0 0.9-3.7 2.6-8.2 1.7-4.6 5.9-16.1 9.4-25.8 3.5-9.6 12.8-35.2 20.8-57 8-21.7 14.9-40.6 15.4-42.1z"/>
</svg>